<svg width="502" height="278" viewBox="0 0 502 278" fill="none" xmlns="http://www.w3.org/2000/svg">
<g clip-path="url(#clip0_1_2)">
<path d="M252.611 278C388.732 278 499.08 270.56 499.08 261.383C499.08 252.206 388.732 244.766 252.611 244.766C116.489 244.766 6.14116 252.206 6.14116 261.383C6.14116 270.56 116.489 278 252.611 278Z" fill="#F2F2F2"/>
<path d="M243.164 79.4698C203.008 79.4698 174.176 105.707 174.176 166.928C174.176 236.312 203.008 254.678 243.164 254.678C283.321 254.678 313.87 234.562 313.87 166.928C313.87 94.6292 283.321 79.4698 243.164 79.4698ZM243.428 231.647C215.615 231.647 201.084 215.029 201.084 166.973C201.084 124.57 216.21 102.209 244.023 102.209C271.836 102.209 286.962 116.897 286.962 166.973C286.962 213.818 271.242 231.647 243.428 231.647Z" fill="#2F2E41"/>
<path d="M150.13 206.284H133.527V156.493C133.527 153.848 132.495 151.312 130.659 149.442C128.823 147.572 126.332 146.521 123.735 146.521H119.845C118.559 146.521 117.286 146.779 116.098 147.28C114.91 147.781 113.831 148.516 112.921 149.442C112.012 150.368 111.291 151.467 110.799 152.677C110.307 153.887 110.053 155.183 110.053 156.493V206.284H63.2218C62.2584 206.284 61.3113 206.031 60.4725 205.548C59.6337 205.065 58.9316 204.37 58.4343 203.53C57.937 202.69 57.6614 201.733 57.6343 200.752C57.6072 199.771 57.8295 198.8 58.2795 197.932L107.846 102.393C108.464 101.202 108.838 99.8957 108.947 98.5531C109.055 97.2105 108.895 95.8594 108.477 94.5814C108.059 93.3033 107.39 92.1249 106.513 91.1172C105.635 90.1094 104.565 89.2933 103.369 88.7181L100.443 87.3109C98.1712 86.2183 95.5737 86.0569 93.1882 86.8603C90.8026 87.6636 88.8116 89.3702 87.6271 91.6268L27.1748 206.795C26.1454 208.757 25.6068 210.946 25.6068 213.17C25.6068 214.945 25.9502 216.704 26.6175 218.344C27.2847 219.985 28.2627 221.475 29.4956 222.731C30.7285 223.986 32.1921 224.982 33.803 225.662C35.4138 226.341 37.1403 226.691 38.8839 226.691H110.053V258.176C110.053 259.746 110.357 261.3 110.947 262.75C111.537 264.2 112.401 265.518 113.491 266.628C114.581 267.738 115.875 268.618 117.299 269.219C118.723 269.82 120.249 270.129 121.79 270.129H121.79C123.331 270.129 124.858 269.82 126.282 269.219C127.705 268.618 128.999 267.738 130.089 266.628C131.179 265.518 132.043 264.2 132.633 262.75C133.223 261.3 133.527 259.746 133.527 258.176V226.691H150.13C152.787 226.691 155.335 225.616 157.214 223.703C159.093 221.789 160.149 219.194 160.149 216.488C160.149 213.782 159.093 211.186 157.214 209.273C155.335 207.359 152.787 206.284 150.13 206.284Z" fill="#7763FF"/>
<path d="M457.573 206.284H440.97V156.493C440.97 153.848 439.938 151.312 438.102 149.442C436.266 147.572 433.775 146.521 431.178 146.521H427.288C426.002 146.521 424.729 146.779 423.541 147.28C422.353 147.781 421.273 148.516 420.364 149.442C419.455 150.368 418.734 151.467 418.242 152.677C417.75 153.887 417.496 155.183 417.496 156.493V206.284H370.665C369.701 206.284 368.754 206.031 367.915 205.548C367.077 205.065 366.375 204.37 365.877 203.53C365.38 202.69 365.104 201.733 365.077 200.752C365.05 199.771 365.272 198.8 365.723 197.932L415.289 102.393C415.907 101.202 416.281 99.8957 416.39 98.5531C416.498 97.2105 416.338 95.8594 415.92 94.5814C415.502 93.3033 414.833 92.1249 413.956 91.1172C413.078 90.1094 412.008 89.2933 410.812 88.7181L407.886 87.3109C405.614 86.2183 403.017 86.0569 400.631 86.8603C398.246 87.6636 396.255 89.3702 395.07 91.6268L334.618 206.795C333.588 208.757 333.05 210.946 333.05 213.17C333.05 216.756 334.449 220.195 336.939 222.731C339.428 225.267 342.806 226.691 346.327 226.691H417.496V258.176C417.496 261.346 418.733 264.386 420.934 266.628C423.135 268.869 426.12 270.129 429.233 270.129C432.346 270.129 435.331 268.869 437.532 266.628C439.733 264.386 440.97 261.346 440.97 258.176V226.691H457.573C460.23 226.691 462.778 225.616 464.657 223.703C466.536 221.789 467.592 219.194 467.592 216.488C467.592 213.782 466.536 211.186 464.657 209.273C462.778 207.359 460.23 206.284 457.573 206.284Z" fill="#7763FF"/>
<path d="M154.71 200.454H138.107V150.662C138.107 149.353 137.854 148.056 137.362 146.846C136.87 145.636 136.148 144.537 135.239 143.611C134.33 142.685 133.25 141.951 132.062 141.45C130.875 140.948 129.601 140.691 128.315 140.691H124.425C121.828 140.691 119.338 141.741 117.501 143.611C115.665 145.481 114.634 148.018 114.634 150.662V200.454H67.802C66.8386 200.454 65.8915 200.2 65.0527 199.718C64.2138 199.235 63.5117 198.54 63.0144 197.699C62.5171 196.859 62.2416 195.902 62.2145 194.921C62.1874 193.941 62.4096 192.969 62.8597 192.102L112.426 96.5626C113.044 95.3715 113.418 94.0652 113.527 92.7226C113.635 91.3799 113.476 90.0288 113.057 88.7508C112.639 87.4728 111.971 86.2944 111.093 85.2866C110.215 84.2789 109.146 83.4628 107.949 82.8875L105.023 81.4804C102.751 80.3877 100.154 80.2264 97.7684 81.0297C95.3828 81.8331 93.3918 83.5396 92.2073 85.7962L31.755 200.965C30.7255 202.926 30.187 205.115 30.187 207.339V207.339C30.187 210.925 31.5858 214.365 34.0757 216.9C36.5657 219.436 39.9427 220.861 43.464 220.861H114.634V252.346C114.634 253.915 114.937 255.469 115.527 256.92C116.117 258.37 116.981 259.687 118.071 260.797C119.161 261.907 120.455 262.788 121.879 263.388C123.303 263.989 124.829 264.298 126.37 264.298H126.37C129.483 264.298 132.468 263.039 134.669 260.797C136.87 258.556 138.107 255.516 138.107 252.346V220.861H154.71C156.026 220.861 157.329 220.597 158.544 220.084C159.76 219.571 160.864 218.82 161.795 217.872C162.725 216.925 163.463 215.8 163.966 214.562C164.47 213.324 164.729 211.997 164.729 210.657V210.657C164.729 209.317 164.47 207.99 163.966 206.752C163.463 205.515 162.725 204.39 161.795 203.442C160.864 202.495 159.76 201.743 158.544 201.23C157.329 200.718 156.026 200.454 154.71 200.454V200.454Z" stroke="#3F3D56" stroke-miterlimit="10"/>
<path d="M466.161 200.454H449.558V150.662C449.558 148.018 448.526 145.481 446.69 143.611C444.853 141.741 442.363 140.691 439.766 140.691H435.876C434.59 140.691 433.317 140.948 432.129 141.45C430.941 141.951 429.861 142.685 428.952 143.611C428.043 144.537 427.322 145.636 426.83 146.846C426.337 148.056 426.084 149.353 426.084 150.662V200.454H379.253C378.289 200.454 377.342 200.2 376.503 199.718C375.664 199.235 374.962 198.54 374.465 197.699C373.968 196.859 373.692 195.902 373.665 194.921C373.638 193.941 373.86 192.969 374.31 192.102L423.876 96.5626C424.494 95.3715 424.869 94.0652 424.977 92.7226C425.086 91.3799 424.926 90.0288 424.508 88.7508C424.09 87.4728 423.421 86.2944 422.543 85.2866C421.665 84.2789 420.596 83.4628 419.4 82.8875L416.474 81.4804C414.202 80.3877 411.604 80.2264 409.219 81.0297C406.833 81.8331 404.842 83.5396 403.658 85.7962L343.206 200.965C342.176 202.926 341.638 205.115 341.638 207.339C341.638 210.925 343.036 214.365 345.526 216.9C348.016 219.436 351.393 220.861 354.915 220.861H426.084V252.346C426.084 255.516 427.321 258.556 429.522 260.797C431.723 263.039 434.708 264.298 437.821 264.298V264.298C440.934 264.298 443.919 263.039 446.12 260.797C448.321 258.556 449.557 255.516 449.557 252.346V220.861H466.161C467.476 220.861 468.779 220.597 469.995 220.084C471.21 219.571 472.315 218.82 473.245 217.872C474.175 216.925 474.913 215.8 475.417 214.562C475.92 213.324 476.18 211.997 476.18 210.657V210.657C476.18 207.951 475.124 205.356 473.245 203.442C471.366 201.529 468.818 200.454 466.161 200.454V200.454Z" stroke="#3F3D56" stroke-miterlimit="10"/>
<path d="M252.325 74.2223C212.168 74.2223 183.336 100.46 183.336 161.681C183.336 231.064 212.168 249.43 252.325 249.43C292.481 249.43 323.031 229.315 323.031 161.681C323.031 89.3817 292.481 74.2223 252.325 74.2223ZM252.589 226.4C224.775 226.4 210.244 209.782 210.244 161.725C210.244 119.322 225.37 96.9614 253.183 96.9614C280.997 96.9614 296.122 111.65 296.122 161.725C296.122 208.57 280.402 226.4 252.589 226.4V226.4Z" stroke="#3F3D56" stroke-miterlimit="10"/>
<path d="M220.136 14.8232C223.466 14.8232 226.164 12.0747 226.164 8.68427C226.164 5.29385 223.466 2.54538 220.136 2.54538C216.807 2.54538 214.108 5.29385 214.108 8.68427C214.108 12.0747 216.807 14.8232 220.136 14.8232Z" fill="#2F2E41"/>
<path d="M234.839 44.6192C244.177 44.6192 251.746 34.6309 251.746 22.3096C251.746 9.98835 244.177 0 234.839 0C225.501 0 217.931 9.98835 217.931 22.3096C217.931 34.6309 225.501 44.6192 234.839 44.6192Z" fill="#2F2E41"/>
<path opacity="0.1" d="M234.839 37.8814C226.369 37.8814 219.354 29.6634 218.123 18.9407C217.995 20.0589 217.931 21.1838 217.931 22.3096C217.931 34.6309 225.501 44.6192 234.839 44.6192C244.177 44.6192 251.746 34.6309 251.746 22.3096C251.747 21.1838 251.683 20.0589 251.555 18.9407C250.324 29.6634 243.309 37.8814 234.839 37.8814Z" fill="black"/>
<path d="M269.244 87.6442C268.881 89.1638 267.315 90.3808 265.581 91.231C261.936 93.0187 257.44 93.5521 253.078 93.7312C251.966 93.8 250.849 93.779 249.74 93.6684C247.59 93.4566 245.573 92.5125 244.016 90.9887C243.905 90.9149 243.814 90.8136 243.751 90.6943C243.689 90.575 243.657 90.4415 243.66 90.3064C243.662 90.1712 243.697 90.0388 243.763 89.9215C243.829 89.8042 243.923 89.7058 244.036 89.6355C246.358 87.038 250.233 85.4452 254.136 84.2984C257.096 83.4289 262.258 81.1765 265.486 81.4805C268.612 81.7749 269.702 85.7256 269.244 87.6442Z" fill="#3F3D56"/>
<path opacity="0.1" d="M269.244 87.6442C268.881 89.1638 267.315 90.3808 265.581 91.231C261.936 93.0187 257.44 93.5521 253.078 93.7312C251.966 93.8 250.849 93.779 249.74 93.6684C247.59 93.4566 245.573 92.5125 244.016 90.9887C243.905 90.9149 243.814 90.8136 243.751 90.6943C243.689 90.575 243.657 90.4415 243.66 90.3064C243.662 90.1712 243.697 90.0388 243.763 89.9215C243.829 89.8042 243.923 89.7058 244.036 89.6355C246.358 87.038 250.233 85.4452 254.136 84.2984C257.096 83.4289 262.258 81.1765 265.486 81.4805C268.612 81.7749 269.702 85.7256 269.244 87.6442Z" fill="black"/>
<path d="M222.894 76.2872C221.782 78.5082 221.58 81.0882 222.334 83.4604C223.101 85.8146 224.537 87.8841 226.46 89.4068C231.176 93.2572 237.668 93.787 243.713 93.7335C249.01 93.6866 254.3 93.3173 259.554 92.6278C261.315 92.4688 263.045 92.0597 264.695 91.4123C266.668 90.543 268.401 88.9486 269.104 86.8796C269.806 84.8106 269.307 82.277 267.639 80.8962C266.174 79.683 264.153 79.5161 262.267 79.4007L251.48 78.7405C252.545 77.6421 253.965 77.0208 255.262 76.2223C256.984 75.1629 258.128 73.3841 259.38 71.7805C261.309 69.4325 263.408 67.2348 265.659 65.2058C266.01 67.2569 267.284 68.9411 268.784 70.3563C270.283 71.7715 272.012 72.9108 273.57 74.2582C277.345 77.5217 280.063 81.9511 284.033 84.9648C286.764 84.234 289.317 82.936 291.531 81.1523L289.989 78.3061C289.86 78.0132 289.66 77.7588 289.407 77.5672C288.97 77.2936 288.407 77.4346 287.9 77.3572C286.545 77.1502 285.953 75.5566 285.421 74.2702C283.961 70.7387 281.165 67.9987 278.778 65.0371C277.016 62.851 275.452 60.5061 274.107 58.0314C273.305 56.5556 272.571 55.0189 271.483 53.7473C270.394 52.4758 268.869 51.4762 267.213 51.4726C265.749 51.4694 264.399 52.2261 263.141 52.9872C259.309 55.3055 255.621 57.864 252.1 60.6477C250.257 62.1046 248.426 63.6438 246.265 64.5372C245.355 64.9133 244.395 65.1703 243.522 65.6279C241.993 66.4295 240.832 67.7856 239.583 68.9893C235.127 73.2829 229.025 76.0647 222.894 76.2872Z" fill="#3F3D56"/>
<path d="M245.451 45.7272C245.401 47.0396 245.127 48.3331 244.641 49.5498C244.395 50.1566 244.028 50.7052 243.564 51.1614C243.101 51.6176 242.55 51.9717 241.946 52.2015C241.088 52.4355 240.189 52.4652 239.319 52.2883C238.559 52.2075 237.828 51.9537 237.178 51.5457C236.166 50.8374 235.662 49.5737 235.478 48.337C235.295 47.1017 235.377 45.8395 235.259 44.5952C235.145 43.5902 234.957 42.5953 234.698 41.6186C234.618 41.2937 234.537 40.9703 234.458 40.6469C234.38 40.3235 234.304 40.0001 234.233 39.6767C234.168 39.3727 234.108 39.0673 234.057 38.7603C234.014 38.5013 233.976 38.2407 233.948 37.9787C233.922 37.2019 233.795 36.4321 233.57 35.6894C233.359 35.2077 233.094 34.7521 232.782 34.3313C232.648 34.1367 232.519 33.942 232.4 33.7399C232.055 33.2146 231.895 32.5862 231.945 31.9566C231.96 31.8593 231.983 31.7636 232.014 31.6707C232.026 31.6347 232.039 31.5988 232.054 31.5644C232.186 31.5278 232.308 31.4589 232.408 31.3636C232.508 31.2684 232.584 31.1497 232.629 31.0178C232.68 30.7345 232.656 30.4427 232.56 30.1718C232.45 29.7934 232.3 29.4283 232.112 29.0833C231.988 28.8557 231.569 28.4455 231.566 28.1849C231.56 27.6609 232.566 27.2386 232.973 27.032C234.216 26.3981 235.602 26.1118 236.99 26.2025C237.879 26.2639 238.844 26.5424 239.335 27.3015C239.776 27.9858 239.717 28.8722 239.905 29.6672C239.925 29.7828 239.973 29.8915 240.045 29.9832C240.141 30.0722 240.262 30.1287 240.39 30.1449C240.608 30.189 240.831 30.1981 241.052 30.1718H241.053C241.112 30.1671 241.17 30.1586 241.227 30.1464C241.57 30.0818 241.895 29.939 242.177 29.7286C242.359 29.6792 242.543 29.6388 242.728 29.6073C242.736 29.6066 242.743 29.6051 242.75 29.6029C243.487 31.9701 243.582 34.508 244.185 36.9186C244.484 38.1179 244.911 39.3023 244.972 40.5361C244.976 40.59 244.978 40.6454 244.979 40.7008C244.988 41.0975 244.957 41.4973 244.973 41.8926C244.979 42.0706 244.998 42.2479 245.032 42.4226C245.098 42.7038 245.18 42.9807 245.277 43.2521L245.282 43.2656C245.31 43.3525 245.336 43.4408 245.358 43.5291C245.374 43.5935 245.389 43.6564 245.401 43.7208L245.402 43.7253C245.511 44.3869 245.528 45.0609 245.451 45.7272Z" fill="#FBBEBE"/>
<path d="M235.133 30.2452C239.924 30.2452 243.807 26.2901 243.807 21.4112C243.807 16.5323 239.924 12.5772 235.133 12.5772C230.342 12.5772 226.458 16.5323 226.458 21.4112C226.458 26.2901 230.342 30.2452 235.133 30.2452Z" fill="#FBBEBE"/>
<path d="M290.205 69.5431C289.953 67.1329 289.112 64.8255 287.758 62.8322C287.983 64.1948 288.209 65.5568 288.435 66.9183C288.154 67.0011 287.855 66.9986 287.576 66.9111C287.296 66.8236 287.048 66.6549 286.862 66.4257C286.496 65.9613 286.217 65.4331 286.037 64.867C285.051 62.3756 283.763 60.0199 282.201 57.8552C276.679 57.3866 271.22 55.0553 266.364 52.3377C261.506 49.6216 256.96 46.365 252.167 43.5337C251.336 43.0221 250.47 42.5718 249.576 42.1861C248.077 41.5737 246.393 41.2563 244.972 40.5361C244.876 40.4882 244.781 40.4373 244.686 40.3849C244.365 40.207 244.061 39.9989 243.778 39.7635C243.625 39.6369 243.479 39.5009 243.343 39.3562C242.633 38.5158 242.071 37.5576 241.68 36.5234C240.917 34.8045 240.645 32.7307 239.883 31.0118C240.233 30.6787 240.626 30.3961 241.052 30.1719H241.053C241.115 30.1389 241.177 30.1075 241.24 30.0775C241.541 29.933 241.855 29.8162 242.177 29.7287C242.359 29.6792 242.543 29.6388 242.728 29.6074C242.736 29.6066 242.743 29.6051 242.75 29.6029C243.609 29.4603 244.489 29.5312 245.316 29.8095C246.524 30.2257 247.543 31.0567 248.559 31.8428C250.209 33.027 251.793 34.3057 253.301 35.6729C254.139 36.4904 254.903 37.3888 255.804 38.1314C256.553 38.7201 257.343 39.253 258.167 39.7261C263.044 42.6847 267.921 45.6428 272.799 48.6005C274.45 49.6022 276.102 50.6039 277.717 51.6639C280.169 53.275 282.533 55.0208 284.896 56.7652C286.288 57.7923 287.68 58.82 289.071 59.8481C289.528 60.1447 289.929 60.5219 290.255 60.9621C290.543 61.4619 290.722 62.019 290.78 62.5956C291.129 64.9252 290.932 67.3059 290.205 69.5431Z" fill="#FBBEBE"/>
<path d="M247.602 52.3707C247.017 55.0433 244.364 56.6589 242.978 59.0066C241.255 61.9204 241.958 65.3072 242.605 68.6447C241.423 69.6823 240.24 70.7199 239.057 71.7576C238.404 72.328 237.751 72.9015 237.049 73.4061C236.024 74.1053 234.953 74.7317 233.843 75.2807C232.797 75.8287 231.75 76.3772 230.703 76.9262C229.73 77.4834 228.699 77.9284 227.629 78.2528C225.566 78.7918 223.375 78.4145 221.335 77.7901C221.094 77.7259 220.863 77.6297 220.647 77.5042C220.519 77.4268 220.408 77.3245 220.32 77.2032C220.119 76.8359 220.046 76.4099 220.113 75.9949C220.32 72.4972 221.16 69.0729 221.996 65.6741C222.443 63.635 223.045 61.6342 223.794 59.6894C224.53 58.023 225.375 56.4092 226.325 54.8592C227.373 52.9088 228.614 51.073 230.03 49.3806C230.719 48.7292 231.299 47.9675 231.747 47.1257C232.269 45.9129 232.067 44.5219 232.173 43.2013C232.254 42.2091 232.513 41.2403 232.936 40.3429V40.3414C233.163 39.8581 233.436 39.3987 233.751 38.9699C233.893 39.3083 234.036 39.6462 234.179 39.9836C234.273 40.2052 234.366 40.4263 234.458 40.6469C234.579 40.9314 234.698 41.2149 234.817 41.4974C235.159 42.3089 235.501 43.1199 235.843 43.9305C236.212 44.9513 236.738 45.906 237.401 46.7589C237.705 47.1955 238.114 47.5447 238.589 47.7722C239.064 47.9997 239.589 48.0978 240.113 48.057C240.637 48.0161 241.141 47.8376 241.577 47.539C242.012 47.2403 242.364 46.8317 242.599 46.3531C243.093 45.4596 243.451 44.4948 243.66 43.4918C243.951 42.2704 243.991 41.0013 243.778 39.7635C243.424 37.3798 242.428 34.9452 241.705 32.7307C241.41 31.9924 241.24 31.2089 241.201 30.4129C241.202 30.3235 241.211 30.2343 241.227 30.1464C241.231 30.124 241.236 30.1 241.24 30.0775C241.542 29.933 241.855 29.8163 242.177 29.7287C242.359 29.6793 242.543 29.6388 242.728 29.6074C243.365 33.117 244.002 36.6267 244.641 40.1363C244.656 40.2187 244.672 40.301 244.686 40.3849C244.778 40.888 244.87 41.3911 244.973 41.8926C245.066 42.3478 245.166 42.8015 245.277 43.2522L245.282 43.2657C245.32 43.4184 245.36 43.5696 245.401 43.7208L245.402 43.7253C245.516 44.1386 245.642 44.5488 245.785 44.9531C246.649 47.3892 248.156 49.8417 247.602 52.3707Z" fill="#7763FF"/>
<path d="M282.806 89.9301C282.778 90.4449 282.876 90.9587 283.091 91.4258C283.634 92.4362 284.936 92.6659 286.063 92.7604C292.648 93.3116 299.272 93.1061 305.812 92.1476C306.167 92.1229 306.511 92.0141 306.817 91.8299C307.747 91.1661 307.174 89.5483 306.158 89.0303C305.143 88.5124 303.938 88.6372 302.824 88.4129C301.718 88.1292 300.664 87.6638 299.704 87.0348C297.445 85.713 295.219 84.335 293.026 82.9007C291.72 82.0467 290.179 81.1354 288.709 81.6417C284.725 83.014 282.78 85.554 282.806 89.9301Z" fill="#3F3D56"/>
<path d="M234.267 39.4895V39.491C234.257 39.5539 234.246 39.6153 234.233 39.6767C234.217 39.7785 234.198 39.8818 234.179 39.9836C233.996 40.9344 233.773 41.8806 233.516 42.8209C232.81 45.4187 231.865 47.9746 230.927 50.4931C228.409 57.2458 225.892 63.9991 223.374 70.7529C222.739 72.4538 222.105 74.1562 221.383 75.8227C221.142 76.3782 220.894 76.9381 220.647 77.5041C219.762 79.5299 218.912 81.6217 218.629 83.7778C218.366 85.1968 218.336 86.6504 218.54 88.0795C218.822 89.4929 219.665 90.8734 220.983 91.396C221.627 91.652 222.549 91.9949 222.373 92.6762C222.277 93.0505 221.86 93.2331 221.485 93.296C220.99 93.3764 220.483 93.3448 220.001 93.2035C219.52 93.0622 219.074 92.8147 218.697 92.4785C217.993 91.8422 217.452 90.8525 216.515 90.7462C215.867 90.6743 215.27 91.0696 214.676 91.3466C212.253 92.474 209.43 91.685 206.885 90.8839C207.085 89.8343 208.12 89.1426 209.148 88.9329C210.176 88.7218 211.239 88.8716 212.287 88.8431C212.623 88.8613 212.956 88.7741 213.241 88.5931C213.497 88.3539 213.676 88.0419 213.756 87.6977C214.431 85.66 214.933 83.5671 215.257 81.442C215.595 79.2215 215.736 76.9666 216.218 74.7731C216.593 73.0617 217.172 71.4042 217.669 69.7242C218.63 66.2653 219.419 62.7592 220.034 59.2193C220.344 57.7486 220.566 56.26 220.7 54.7618C220.783 53.5191 220.744 52.2703 220.861 51.0321C221.059 49.4211 221.389 47.8299 221.848 46.2752C222.298 44.5788 222.747 42.8833 223.196 41.1889C223.862 38.6809 224.577 36.0757 226.264 34.1262C226.851 33.4399 227.569 32.8835 228.375 32.4915C229.181 32.0995 230.057 31.8803 230.95 31.8473C231.285 31.8469 231.618 31.8836 231.945 31.9566C232 31.9701 232.054 31.9836 232.109 31.9985C232.465 32.0934 232.807 32.2375 233.124 32.4268C233.645 32.0899 233.91 32.2082 234.255 32.7277C234.558 33.2776 234.701 33.9039 234.667 34.5335C234.696 36.1949 234.562 37.8552 234.267 39.4895Z" fill="#FBBEBE"/>
<path d="M234.839 41.4749L234.817 41.4974L234.698 41.6186L233.516 42.821L232.936 40.343L230.95 31.8473C231.285 31.8469 231.618 31.8836 231.945 31.9566C231.96 31.8593 231.983 31.7635 232.014 31.6706L232.109 31.9985L232.782 34.3313L234.057 38.7603L234.267 39.4895V39.491L234.839 41.4749Z" fill="#7763FF"/>
<path d="M242.34 14.3717C242.339 15.1583 242.186 15.9371 241.889 16.6634C241.592 17.3897 241.158 18.0494 240.611 18.6047C240.413 18.8068 240.2 18.9939 239.975 19.1644C238.961 19.9433 237.725 20.3649 236.454 20.3655H229.401C227.842 20.3631 226.348 19.7308 225.247 18.6075C224.146 17.4843 223.527 15.9619 223.527 14.3746C223.527 12.7873 224.146 11.2649 225.247 10.1417C226.348 9.01841 227.842 8.38615 229.401 8.3837H236.454C238.013 8.38783 239.507 9.01985 240.609 10.1418C241.712 11.2637 242.334 12.7843 242.34 14.3717Z" fill="#2F2E41"/>
<path d="M248.953 14.8232C252.282 14.8232 254.981 12.0747 254.981 8.68427C254.981 5.29385 252.282 2.54538 248.953 2.54538C245.624 2.54538 242.925 5.29385 242.925 8.68427C242.925 12.0747 245.624 14.8232 248.953 14.8232Z" fill="#2F2E41"/>
<path opacity="0.1" d="M248.806 2.54538C248.732 2.54538 248.659 2.54837 248.585 2.55106C250.145 2.60879 251.621 3.28024 252.705 4.42413C253.788 5.56802 254.393 7.09517 254.393 8.68427C254.393 10.2734 253.788 11.8005 252.705 12.9444C251.621 14.0883 250.145 14.7597 248.585 14.8175C248.659 14.8202 248.732 14.8231 248.806 14.8231C250.405 14.8231 251.938 14.1764 253.068 13.0251C254.199 11.8738 254.834 10.3124 254.834 8.68427C254.834 7.05614 254.199 5.49468 253.068 4.34342C251.938 3.19216 250.405 2.54538 248.806 2.54538Z" fill="black"/>
<path opacity="0.1" d="M220.136 2.54538C220.21 2.54538 220.284 2.54837 220.357 2.55106C218.798 2.60879 217.321 3.28024 216.238 4.42413C215.155 5.56802 214.55 7.09517 214.55 8.68427C214.55 10.2734 215.155 11.8005 216.238 12.9444C217.321 14.0883 218.798 14.7597 220.357 14.8175C220.284 14.8202 220.21 14.8231 220.136 14.8231C218.539 14.8217 217.007 14.1743 215.877 13.0232C214.748 11.8721 214.114 10.3115 214.114 8.68427C214.114 7.05707 214.748 5.49644 215.877 4.34533C217.007 3.19422 218.539 2.54681 220.136 2.54538Z" fill="black"/>
<path opacity="0.1" d="M239.975 19.1644C238.961 19.9433 237.725 20.3649 236.454 20.3655H229.401C228.13 20.3649 226.894 19.9433 225.88 19.1644H239.975Z" fill="black"/>
<path d="M285.524 63.6463C285.524 63.6463 287.044 68.1057 288.435 66.9183L287.326 61.0894L285.524 63.6463Z" fill="#FBBEBE"/>
<path d="M470.448 199.638C471.864 200.162 473.379 200.344 474.875 200.17C476.372 199.996 477.808 199.47 479.07 198.634C480.333 197.798 481.388 196.675 482.152 195.353C482.916 194.031 483.367 192.547 483.472 191.017C483.576 189.487 483.33 187.953 482.753 186.536C482.176 185.119 481.284 183.859 480.146 182.853C479.009 181.847 477.658 181.125 476.2 180.741C474.742 180.358 473.216 180.325 471.743 180.645L471.987 185.742L469.618 181.374C467.294 182.486 465.499 184.492 464.627 186.952C464.317 187.813 464.128 188.715 464.067 189.631C463.918 191.779 464.46 193.917 465.611 195.723C466.763 197.529 468.461 198.903 470.448 199.638Z" fill="#57B894"/>
<path d="M482.165 258.758C481.329 254.423 484.952 250.58 488.529 248.082C492.107 245.584 496.288 243.129 497.509 238.89C499.263 232.798 494.037 227.218 489.97 222.406C486.952 218.835 484.36 214.913 482.249 210.721C481.403 209.04 480.625 207.283 480.402 205.408C480.082 202.707 480.934 200.02 481.792 197.444C484.651 188.862 487.708 180.352 490.963 171.915" stroke="#3F3D56" stroke-miterlimit="10"/>
<path d="M470.849 198.326C472.264 198.85 473.78 199.032 475.276 198.858C476.772 198.683 478.208 198.158 479.471 197.322C480.734 196.486 481.788 195.363 482.552 194.041C483.316 192.719 483.768 191.234 483.872 189.704C483.976 188.174 483.73 186.64 483.153 185.224C482.576 183.807 481.684 182.546 480.547 181.541C479.41 180.535 478.059 179.812 476.6 179.429C475.142 179.046 473.616 179.013 472.144 179.333L472.387 184.43L470.019 180.061C467.695 181.174 465.899 183.18 465.027 185.64C464.717 186.501 464.529 187.403 464.468 188.318C464.318 190.466 464.86 192.605 466.012 194.411C467.163 196.217 468.861 197.591 470.849 198.326V198.326Z" stroke="#3F3D56" stroke-miterlimit="10"/>
<path d="M480.977 170.154C481.532 168.594 482.464 167.2 483.688 166.103C484.911 165.005 486.386 164.239 487.976 163.875L488.777 168.72L490.261 163.631C492.322 163.662 494.32 164.359 495.967 165.622C497.613 166.885 498.823 168.648 499.421 170.657C500.02 172.666 499.976 174.817 499.296 176.798C498.616 178.78 497.335 180.49 495.639 181.683C493.942 182.875 491.917 183.487 489.857 183.431C487.796 183.375 485.806 182.653 484.175 181.37C482.543 180.087 481.354 178.309 480.779 176.294C480.204 174.278 480.274 172.128 480.977 170.154H480.977Z" fill="#57B894"/>
<path d="M481.511 168.405C482.066 166.844 482.998 165.45 484.222 164.353C485.445 163.256 486.92 162.489 488.51 162.125L489.311 166.971L490.795 161.881C492.856 161.912 494.854 162.61 496.501 163.873C498.147 165.136 499.357 166.899 499.955 168.907C500.554 170.916 500.51 173.067 499.83 175.049C499.15 177.03 497.869 178.741 496.173 179.933C494.476 181.125 492.451 181.737 490.391 181.681C488.33 181.625 486.34 180.903 484.709 179.62C483.077 178.337 481.888 176.56 481.313 174.544C480.738 172.528 480.808 170.378 481.511 168.405H481.511Z" stroke="#3F3D56" stroke-miterlimit="10"/>
<path d="M488.263 222.504C490.507 223.334 492.973 223.293 495.19 222.389C497.407 221.486 499.22 219.784 500.284 217.606C501.347 215.429 501.587 212.93 500.957 210.584C500.327 208.238 498.872 206.211 496.869 204.888L495.728 208.799L494.919 203.896C494.911 203.892 494.903 203.889 494.894 203.886C493.694 203.442 492.419 203.243 491.143 203.3C489.867 203.358 488.614 203.671 487.457 204.222C486.299 204.772 485.26 205.55 484.398 206.51C483.536 207.47 482.868 208.593 482.432 209.816C481.996 211.039 481.802 212.338 481.859 213.637C481.916 214.937 482.224 216.212 482.766 217.391C483.307 218.569 484.071 219.627 485.015 220.505C485.958 221.382 487.061 222.062 488.263 222.504H488.263Z" fill="#57B894"/>
<path d="M488.725 220.732C490.97 221.561 493.436 221.52 495.653 220.617C497.87 219.714 499.683 218.011 500.746 215.834C501.81 213.657 502.05 211.157 501.42 208.812C500.79 206.466 499.335 204.438 497.331 203.115L496.191 207.026L495.382 202.123C495.374 202.12 495.366 202.116 495.357 202.114C494.157 201.669 492.882 201.47 491.606 201.528C490.329 201.585 489.077 201.899 487.919 202.449C486.762 203 485.723 203.778 484.861 204.737C483.998 205.697 483.33 206.821 482.895 208.044C482.459 209.267 482.264 210.565 482.322 211.865C482.379 213.165 482.687 214.44 483.229 215.618C483.77 216.797 484.534 217.855 485.477 218.732C486.42 219.61 487.524 220.289 488.725 220.732H488.725Z" stroke="#3F3D56" stroke-miterlimit="10"/>
<path d="M478.139 238.951C478.525 241.187 479.654 243.221 481.337 244.71C483.021 246.199 485.156 247.054 487.384 247.13C489.613 247.206 491.799 246.5 493.577 245.13C495.355 243.759 496.616 241.808 497.149 239.603C497.682 237.398 497.454 235.073 496.504 233.019C495.553 230.965 493.938 229.306 491.929 228.32C489.921 227.335 487.64 227.083 485.47 227.606C483.301 228.13 481.374 229.397 480.013 231.196L484.345 237.837L478.425 234.312C477.966 235.813 477.868 237.403 478.139 238.951Z" fill="#57B894"/>
<path d="M478.539 237.638C478.925 239.875 480.055 241.908 481.738 243.397C483.421 244.887 485.556 245.741 487.785 245.818C490.013 245.894 492.2 245.188 493.978 243.817C495.756 242.447 497.017 240.495 497.55 238.29C498.082 236.085 497.854 233.761 496.904 231.707C495.954 229.652 494.339 227.993 492.33 227.008C490.321 226.022 488.041 225.77 485.871 226.294C483.701 226.817 481.774 228.085 480.413 229.883L484.746 236.525L478.826 233C478.367 234.5 478.269 236.091 478.539 237.638V237.638Z" stroke="#3F3D56" stroke-miterlimit="10"/>
<path d="M4.20866 223.763C5.13861 224.107 6.13437 224.227 7.11746 224.112C8.10054 223.998 9.04409 223.652 9.87372 223.103C10.7033 222.554 11.3964 221.816 11.8982 220.947C12.4 220.079 12.6969 219.104 12.7654 218.098C12.834 217.093 12.6723 216.085 12.2932 215.155C11.914 214.224 11.3278 213.395 10.5807 212.735C9.83354 212.074 8.94593 211.599 7.98781 211.347C7.02969 211.095 6.02726 211.074 5.05951 211.284L5.21943 214.633L3.66358 211.763C2.1366 212.493 0.956942 213.812 0.383844 215.428C0.180313 215.994 0.0565814 216.586 0.0163402 217.188C-0.0818659 218.599 0.274269 220.004 1.03078 221.191C1.78728 222.377 2.90293 223.28 4.20866 223.763Z" fill="#57B894"/>
<path d="M11.9071 262.606C11.3578 259.757 13.7377 257.232 16.0885 255.591C18.4392 253.95 21.186 252.337 21.988 249.552C23.1408 245.549 19.7071 241.883 17.0346 238.722C15.0519 236.376 13.3492 233.799 11.9621 231.044C11.3591 229.962 10.9484 228.781 10.7488 227.553C10.5381 225.779 11.0979 224.013 11.6618 222.321C13.5404 216.683 15.5489 211.092 17.6874 205.548" stroke="#3F3D56" stroke-miterlimit="10"/>
<path d="M4.47177 222.901C5.40172 223.245 6.39748 223.364 7.38057 223.25C8.36365 223.135 9.30719 222.79 10.1368 222.241C10.9664 221.692 11.6595 220.954 12.1613 220.085C12.6631 219.217 12.96 218.241 13.0285 217.236C13.0971 216.231 12.9354 215.223 12.5563 214.292C12.1771 213.361 11.5909 212.533 10.8438 211.872C10.0966 211.212 9.20903 210.737 8.25092 210.485C7.2928 210.233 6.29037 210.212 5.32262 210.422L5.48254 213.771L3.92669 210.901C2.39971 211.631 1.22005 212.949 0.646952 214.565C0.443423 215.131 0.319693 215.724 0.279449 216.326C0.181237 217.737 0.53737 219.142 1.29388 220.328C2.05039 221.515 3.16604 222.418 4.47177 222.901V222.901Z" stroke="#3F3D56" stroke-miterlimit="10"/>
<path d="M11.1261 204.391C11.4911 203.366 12.1036 202.45 12.9073 201.729C13.7109 201.008 14.6798 200.505 15.7248 200.265L16.2508 203.449L17.2261 200.105C18.5803 200.126 19.893 200.584 20.9748 201.414C22.0566 202.244 22.8514 203.402 23.2446 204.722C23.6378 206.042 23.6089 207.455 23.1622 208.757C22.7155 210.059 21.874 211.182 20.7593 211.966C19.6446 212.749 18.3143 213.151 16.9604 213.114C15.6066 213.077 14.2994 212.603 13.2274 211.76C12.1554 210.917 11.3742 209.749 10.9965 208.425C10.6188 207.1 10.6642 205.688 11.1261 204.391Z" fill="#57B894"/>
<path d="M11.477 203.242C11.8419 202.216 12.4544 201.301 13.2581 200.58C14.0617 199.859 15.0307 199.355 16.0756 199.116L16.6017 202.3L17.577 198.956C18.9311 198.976 20.2438 199.434 21.3256 200.264C22.4074 201.094 23.2023 202.252 23.5954 203.572C23.9886 204.892 23.9598 206.305 23.513 207.607C23.0663 208.909 22.2248 210.033 21.1101 210.816C19.9954 211.599 18.6651 212.001 17.3113 211.965C15.9575 211.928 14.6502 211.454 13.5782 210.611C12.5062 209.768 11.725 208.6 11.3473 207.275C10.9696 205.951 11.015 204.538 11.477 203.242V203.242Z" stroke="#3F3D56" stroke-miterlimit="10"/>
<path d="M15.9131 238.786C17.3879 239.331 19.008 239.304 20.4646 238.711C21.9211 238.117 23.1124 236.999 23.8112 235.568C24.51 234.138 24.6675 232.496 24.2537 230.954C23.8399 229.413 22.8837 228.081 21.5675 227.212L20.818 229.781L20.2866 226.56C20.2814 226.558 20.276 226.555 20.2704 226.554C19.4815 226.262 18.6439 226.131 17.8053 226.168C16.9667 226.206 16.1436 226.412 15.3831 226.774C14.6226 227.135 13.9396 227.646 13.373 228.277C12.8065 228.908 12.3675 229.646 12.0813 230.45C11.7951 231.253 11.6671 232.106 11.7048 232.96C11.7425 233.814 11.945 234.652 12.3009 235.427C12.6567 236.201 13.1589 236.896 13.7787 237.473C14.3985 238.049 15.1238 238.495 15.9131 238.786Z" fill="#57B894"/>
<path d="M16.2171 237.622C17.6919 238.167 19.312 238.14 20.7685 237.546C22.2251 236.953 23.4163 235.834 24.1151 234.404C24.8139 232.973 24.9715 231.331 24.5577 229.79C24.1439 228.249 23.1877 226.917 21.8714 226.047L21.122 228.617L20.5906 225.396C20.5854 225.393 20.5799 225.391 20.5744 225.389C19.7857 225.098 18.9484 224.968 18.1102 225.006C17.2721 225.044 16.4495 225.25 15.6895 225.612C14.1547 226.343 12.9678 227.665 12.3899 229.287C11.8121 230.909 11.8907 232.698 12.6085 234.262C13.3262 235.825 14.6242 237.033 16.2171 237.622V237.622Z" stroke="#3F3D56" stroke-miterlimit="10"/>
<path d="M9.26165 249.592C9.51523 251.061 10.2572 252.397 11.3632 253.376C12.4692 254.354 13.8719 254.916 15.3361 254.966C16.8002 255.016 18.2368 254.552 19.4049 253.651C20.573 252.751 21.4016 251.469 21.7517 250.02C22.1018 248.571 21.952 247.044 21.3277 245.694C20.7033 244.345 19.6422 243.255 18.3223 242.607C17.0025 241.96 15.5041 241.794 14.0786 242.138C12.6531 242.482 11.387 243.315 10.4928 244.497L13.3394 248.86L9.44991 246.544C9.14834 247.53 9.08377 248.575 9.26165 249.592Z" fill="#57B894"/>
<path d="M9.52477 248.73C9.77835 250.199 10.5203 251.535 11.6263 252.513C12.7323 253.492 14.135 254.053 15.5992 254.104C17.0634 254.154 18.5 253.69 19.6681 252.789C20.8362 251.889 21.6647 250.607 22.0148 249.158C22.3649 247.709 22.2152 246.182 21.5908 244.832C20.9664 243.483 19.9053 242.393 18.5854 241.745C17.2656 241.098 15.7673 240.932 14.3417 241.276C12.9162 241.62 11.6502 242.453 10.7559 243.634L13.6025 247.998L9.71303 245.682C9.41146 246.668 9.34689 247.713 9.52477 248.73V248.73Z" stroke="#3F3D56" stroke-miterlimit="10"/>
<path d="M224.718 162.316C229.105 162.316 232.661 157.629 232.661 151.848C232.661 146.066 229.105 141.379 224.718 141.379C220.331 141.379 216.775 146.066 216.775 151.848C216.775 157.629 220.331 162.316 224.718 162.316Z" fill="#2F2E41"/>
<path d="M267.937 162.554C272.324 162.554 275.881 157.867 275.881 152.086C275.881 146.304 272.324 141.617 267.937 141.617C263.551 141.617 259.994 146.304 259.994 152.086C259.994 157.867 263.551 162.554 267.937 162.554Z" fill="#2F2E41"/>
<path d="M261.863 183.015C261.863 187.745 255.378 191.58 247.379 191.58C239.38 191.58 232.894 187.745 232.894 183.015C232.894 178.918 237.758 175.492 244.258 174.655C245.292 174.516 246.335 174.447 247.379 174.45C249.128 174.444 250.872 174.636 252.579 175.021C258.009 176.253 261.863 179.37 261.863 183.015Z" fill="#2F2E41"/>
<path d="M226.587 159.937C230.974 159.937 234.53 155.25 234.53 149.468C234.53 143.687 230.974 139 226.587 139C222.2 139 218.644 143.687 218.644 149.468C218.644 155.25 222.2 159.937 226.587 159.937Z" stroke="#3F3D56" stroke-miterlimit="10"/>
<path d="M269.806 160.175C274.193 160.175 277.75 155.488 277.75 149.706C277.75 143.925 274.193 139.238 269.806 139.238C265.42 139.238 261.863 143.925 261.863 149.706C261.863 155.488 265.42 160.175 269.806 160.175Z" stroke="#3F3D56" stroke-miterlimit="10"/>
<path d="M249.248 189.201C257.247 189.201 263.732 185.366 263.732 180.636C263.732 175.906 257.247 172.071 249.248 172.071C241.248 172.071 234.763 175.906 234.763 180.636C234.763 185.366 241.248 189.201 249.248 189.201Z" stroke="#3F3D56" stroke-miterlimit="10"/>
<path d="M252.752 175.735C252.756 176.333 252.535 176.91 252.135 177.349C251.946 177.559 251.717 177.727 251.461 177.842C251.206 177.957 250.929 178.018 250.65 178.019H245.977C245.401 177.998 244.857 177.747 244.463 177.319C244.069 176.891 243.857 176.321 243.875 175.735C243.872 175.271 244.005 174.817 244.258 174.43C245.292 174.282 246.335 174.209 247.379 174.212C249.13 174.206 250.875 174.411 252.579 174.821C252.695 175.111 252.753 175.422 252.752 175.735Z" fill="white"/>
<path d="M226.587 148.993C227.877 148.993 228.923 147.927 228.923 146.613C228.923 145.299 227.877 144.234 226.587 144.234C225.296 144.234 224.25 145.299 224.25 146.613C224.25 147.927 225.296 148.993 226.587 148.993Z" fill="white"/>
<path d="M270.04 148.993C271.33 148.993 272.376 147.927 272.376 146.613C272.376 145.299 271.33 144.234 270.04 144.234C268.75 144.234 267.704 145.299 267.704 146.613C267.704 147.927 268.75 148.993 270.04 148.993Z" fill="white"/>
<path opacity="0.3" d="M272.376 171.357C273.667 171.357 274.712 170.292 274.712 168.978C274.712 167.664 273.667 166.599 272.376 166.599C271.086 166.599 270.04 167.664 270.04 168.978C270.04 170.292 271.086 171.357 272.376 171.357Z" fill="#7763FF"/>
<path opacity="0.3" d="M215.373 171.357C216.663 171.357 217.709 170.292 217.709 168.978C217.709 167.664 216.663 166.599 215.373 166.599C214.083 166.599 213.037 167.664 213.037 168.978C213.037 170.292 214.083 171.357 215.373 171.357Z" fill="#7763FF"/>
</g>
<defs>
<clipPath id="clip0_1_2">
<rect width="502" height="278" fill="white"/>
</clipPath>
</defs>
</svg>
